<mxfile host="app.diagrams.net" agent="Mozilla/5.0 (Windows NT 10.0; Win64; x64) AppleWebKit/537.36 (KHTML, like Gecko) Chrome/130.0.0.0 Safari/537.36" version="24.8.2">
  <diagram name="Page-1" id="_Nm4rTJO_Q65bVoxarev">
    <mxGraphModel dx="1434" dy="778" grid="1" gridSize="10" guides="1" tooltips="1" connect="1" arrows="1" fold="1" page="1" pageScale="1" pageWidth="850" pageHeight="1100" math="0" shadow="0">
      <root>
        <mxCell id="0" />
        <mxCell id="1" parent="0" />
        <mxCell id="pi6UzvG9wCLu3DeklmV8-3" value="" style="edgeStyle=orthogonalEdgeStyle;rounded=0;orthogonalLoop=1;jettySize=auto;html=1;" edge="1" parent="1" source="pi6UzvG9wCLu3DeklmV8-1" target="pi6UzvG9wCLu3DeklmV8-2">
          <mxGeometry relative="1" as="geometry" />
        </mxCell>
        <mxCell id="pi6UzvG9wCLu3DeklmV8-1" value="Jse.Ei.Batch.CommonDataUpload" style="rounded=1;whiteSpace=wrap;html=1;" vertex="1" parent="1">
          <mxGeometry x="90" y="170" width="270" height="120" as="geometry" />
        </mxCell>
        <mxCell id="pi6UzvG9wCLu3DeklmV8-5" value="" style="edgeStyle=orthogonalEdgeStyle;rounded=0;orthogonalLoop=1;jettySize=auto;html=1;" edge="1" parent="1" source="pi6UzvG9wCLu3DeklmV8-2" target="pi6UzvG9wCLu3DeklmV8-4">
          <mxGeometry relative="1" as="geometry" />
        </mxCell>
        <mxCell id="pi6UzvG9wCLu3DeklmV8-19" style="edgeStyle=orthogonalEdgeStyle;rounded=0;orthogonalLoop=1;jettySize=auto;html=1;entryX=1;entryY=0.35;entryDx=0;entryDy=0;exitX=0;exitY=0.25;exitDx=0;exitDy=0;entryPerimeter=0;" edge="1" parent="1" source="pi6UzvG9wCLu3DeklmV8-2" target="pi6UzvG9wCLu3DeklmV8-1">
          <mxGeometry relative="1" as="geometry" />
        </mxCell>
        <mxCell id="pi6UzvG9wCLu3DeklmV8-2" value="CEP: Jse.Ei.CommonDataUpload" style="whiteSpace=wrap;html=1;rounded=1;" vertex="1" parent="1">
          <mxGeometry x="530" y="195" width="245" height="70" as="geometry" />
        </mxCell>
        <mxCell id="pi6UzvG9wCLu3DeklmV8-17" style="edgeStyle=orthogonalEdgeStyle;rounded=0;orthogonalLoop=1;jettySize=auto;html=1;exitX=0.663;exitY=0;exitDx=0;exitDy=0;exitPerimeter=0;" edge="1" parent="1">
          <mxGeometry relative="1" as="geometry">
            <mxPoint x="699" y="270" as="targetPoint" />
            <mxPoint x="697.9549999999999" y="380" as="sourcePoint" />
          </mxGeometry>
        </mxCell>
        <mxCell id="pi6UzvG9wCLu3DeklmV8-4" value="Adapter: Jse.Ei.Adapter.CommonDataUpload" style="whiteSpace=wrap;html=1;rounded=1;" vertex="1" parent="1">
          <mxGeometry x="510" y="380" width="285" height="90" as="geometry" />
        </mxCell>
        <mxCell id="pi6UzvG9wCLu3DeklmV8-9" value="Request" style="text;html=1;align=center;verticalAlign=middle;whiteSpace=wrap;rounded=0;" vertex="1" parent="1">
          <mxGeometry x="600" y="310" width="60" height="30" as="geometry" />
        </mxCell>
        <mxCell id="pi6UzvG9wCLu3DeklmV8-16" value="Response" style="text;html=1;align=center;verticalAlign=middle;whiteSpace=wrap;rounded=0;" vertex="1" parent="1">
          <mxGeometry x="425" y="180" width="60" height="30" as="geometry" />
        </mxCell>
        <mxCell id="pi6UzvG9wCLu3DeklmV8-18" value="Response" style="text;html=1;align=center;verticalAlign=middle;whiteSpace=wrap;rounded=0;" vertex="1" parent="1">
          <mxGeometry x="700" y="320" width="60" height="30" as="geometry" />
        </mxCell>
      </root>
    </mxGraphModel>
  </diagram>
</mxfile>
